<svg xmlns="http://www.w3.org/2000/svg" xmlns:xlink="http://www.w3.org/1999/xlink" viewBox="0 0 1379.72 412.53"><defs><style>.cls-1{isolation:isolate;}.cls-2{fill:#404647;}.cls-3{fill:url(#linear-gradient);}.cls-4{mix-blend-mode:overlay;}.cls-5{fill:#b3b3b3;}.cls-6{fill:#fff;}</style><linearGradient id="linear-gradient" x1="1042.18" y1="62.5" x2="1320.07" y2="336.3" gradientUnits="userSpaceOnUse"><stop offset="0" stop-color="#e27d7d"/><stop offset="0.14" stop-color="#d56565"/><stop offset="0.38" stop-color="#c34545"/><stop offset="0.61" stop-color="#b62e2e"/><stop offset="0.82" stop-color="#ae2020"/><stop offset="1" stop-color="#ab1b1b"/></linearGradient></defs><g class="cls-1"><g id="Layer_2" data-name="Layer 2"><rect class="cls-2" y="366.72" width="394.05" height="7.3"/><path class="cls-2" d="M33.91,277.18H74L63.2,208.76q-3.54-22.18.62-31.13t17.88-8.94h6.93q6.78,61.19,83.38,61.19H360.35V81.46H318.73V197.05H241.21V150q0-72.58-71.36-72.59-32.52,0-53.79,16.8-19.73,15.57-25.42,41.61H83.08q-36.37,0-51.47,21.12-13.72,19.58-8.17,54.86ZM139.34,122.3q10.17-12,27.58-12,33.92,0,33.91,44.85v41.92h-24q-47.32,0-47.32-44.23Q129.47,134,139.34,122.3Z"/><path class="cls-2" d="M271.42,262.09a22.18,22.18,0,0,0,0,30.36,19.85,19.85,0,0,0,14.79,6.16,20.3,20.3,0,0,0,15.11-6.31,20.81,20.81,0,0,0,6-15.11,21.34,21.34,0,0,0-6-15.26,20.55,20.55,0,0,0-15.11-6.16A19.9,19.9,0,0,0,271.42,262.09Z"/><path class="cls-2" d="M323.82,262.09a22.18,22.18,0,0,0,0,30.36,20.67,20.67,0,0,0,29.59-.15,22.19,22.19,0,0,0,0-30.37,20.66,20.66,0,0,0-29.59.16Z"/><path class="cls-2" d="M645.93,57.57a20.12,20.12,0,0,0,15-6.32,20.87,20.87,0,0,0,6.17-15.1,20.74,20.74,0,0,0-6.17-15.26,20.65,20.65,0,0,0-29.74,0A21,21,0,0,0,625,36.15a20.5,20.5,0,0,0,6.17,15.1A19.61,19.61,0,0,0,645.93,57.57Z"/><path class="cls-2" d="M698.33,57.57a20,20,0,0,0,14.8-6.32,21.18,21.18,0,0,0,6-15.1,21,21,0,0,0-6-15.26,20,20,0,0,0-14.8-6.32,19.61,19.61,0,0,0-14.79,6.32,21.06,21.06,0,0,0-6.17,15.26,20.53,20.53,0,0,0,6.17,15.1A19.61,19.61,0,0,0,698.33,57.57Z"/><path class="cls-2" d="M798.51,57.57a20.29,20.29,0,0,0,15.1-6.32,21.14,21.14,0,0,0,6-15.1,21,21,0,0,0-6-15.26,20.29,20.29,0,0,0-15.1-6.32,19.91,19.91,0,0,0-14.79,6.32,21.33,21.33,0,0,0-6,15.26,20.8,20.8,0,0,0,6,15.1A19.6,19.6,0,0,0,798.51,57.57Z"/><path class="cls-2" d="M851.53,229.88V81.46H809.92V197.05h-56.1a209.31,209.31,0,0,0-24.05,1.54q18.35-15.4,18.34-47.62,0-36.69-19.88-55.64-19-17.88-53.63-17.88-35.61,0-58,22.19t-22.19,56.41q0,27.6,14.48,42.54a118.63,118.63,0,0,0-19.26-1.54H576.42v.27H550.34V88.92Q521.6,78,484.53,78q-41,0-63.5,24-20,21.52-20,55,0,73,84.41,73h21.32q-15.48,21.08-55.68,11.16a228.4,228.4,0,0,1-46.34-17l-10.71,32.37a285.37,285.37,0,0,0,45.58,15.53q48.67,12,79-4.26c13.28-7.11,23-20.75,27.79-37.76h34.65v-.19H851.53ZM510,197.3H489.91q-47.34,0-47.35-44.13,0-18.75,10-30.44,10.15-12,27.51-12,18,0,30,5.69Zm186-11.19q-9.24,10.94-25,10.94-35,0-35-44.54,0-20.81,11.09-32.21,9.72-10,24.51-10,34.51,0,34.52,42.84Q706.19,174.39,696,186.11Z"/><path class="cls-2" d="M850.91,57.57a20,20,0,0,0,14.8-6.32,21.18,21.18,0,0,0,6-15.1,21,21,0,0,0-6-15.26,19.64,19.64,0,0,0-14.8-6.32,19.93,19.93,0,0,0-14.79,6.32,21.33,21.33,0,0,0-6,15.26,20.8,20.8,0,0,0,6,15.1A19.61,19.61,0,0,0,850.91,57.57Z"/><path class="cls-2" d="M459.14,382.76c-3.5,0-6.18-1-8-3s-2.8-4.81-2.8-8.46v-37.4h19.05v-7H448.3V313.08h-8.46V326.9H428.65v7h11.19V371.8q0,8.7,4.77,13.46T458.18,390a24.73,24.73,0,0,0,7.21-1.07,15.62,15.62,0,0,0,6-3.34l-3-6.07A13.68,13.68,0,0,1,459.14,382.76Z"/><path class="cls-2" d="M507.49,326.3a44.73,44.73,0,0,0-14.05,2.2A33.86,33.86,0,0,0,482,334.76l3.81,6.31a29.52,29.52,0,0,1,9.29-5.36,33.13,33.13,0,0,1,11.56-2q8.8,0,13.28,4.29t4.46,12.27v3.81H504.51q-8.92,0-14.23,2.44a16.38,16.38,0,0,0-7.62,6.43,17.34,17.34,0,0,0-2.32,8.88,16.73,16.73,0,0,0,2.73,9.47A18.15,18.15,0,0,0,491,387.7,29.57,29.57,0,0,0,503.2,390q8.94,0,14.83-3.69a20.32,20.32,0,0,0,6.73-6.73v9.83h8.1V350.6q0-12.27-6.61-18.29T507.49,326.3Zm9.35,53.78a22.6,22.6,0,0,1-12.33,3.27q-7.5,0-11.67-3.21a10.86,10.86,0,0,1-.65-16.56q3.51-3.21,12.56-3.22H524.4v10.25A18.86,18.86,0,0,1,516.84,380.08Z"/><path class="cls-2" d="M603.73,339.13a26.13,26.13,0,0,0-9.35-9.14,29.48,29.48,0,0,0-14.83-3.69,32.06,32.06,0,0,0-16,4,28.7,28.7,0,0,0-11.14,11.2,36.23,36.23,0,0,0,0,33.29A29.28,29.28,0,0,0,563.53,386a31.68,31.68,0,0,0,16,4,28.87,28.87,0,0,0,14.71-3.75,26.83,26.83,0,0,0,9.11-8.76v35h8.46V326.9h-8.1Zm-11.62,40.35a23.57,23.57,0,0,1-12,3,23.06,23.06,0,0,1-11.79-3A22.11,22.11,0,0,1,560,370.9a25.73,25.73,0,0,1-3.1-12.8,25.39,25.39,0,0,1,3.1-12.74,22.51,22.51,0,0,1,20.12-11.68,23.31,23.31,0,0,1,12,3.1,22.19,22.19,0,0,1,8.34,8.58,25.79,25.79,0,0,1,3,12.74,26.13,26.13,0,0,1-3,12.8A21.53,21.53,0,0,1,592.11,379.48Z"/><polygon class="cls-2" points="698.47 379.99 678.52 326.9 671.26 326.9 651.1 379.97 631.48 326.9 623.38 326.9 646.96 389.43 654.94 389.43 674.77 338.12 694.48 389.43 702.46 389.43 726.16 326.9 718.42 326.9 698.47 379.99"/><path class="cls-2" d="M742,301.05a6.1,6.1,0,0,0-4.4,1.73,5.66,5.66,0,0,0-1.79,4.23,5.85,5.85,0,0,0,1.79,4.28,6.39,6.39,0,0,0,8.87,0,6.1,6.1,0,0,0,1.73-4.4,5.47,5.47,0,0,0-1.79-4.17A6.22,6.22,0,0,0,742,301.05Z"/><rect class="cls-2" x="737.72" y="326.9" width="8.46" height="62.53"/><path class="cls-2" d="M868.79,338.09a20.46,20.46,0,0,0-8.81-8.87,28.57,28.57,0,0,0-13.28-2.92A29.18,29.18,0,0,0,830,331a25,25,0,0,0-8,8.51,19.72,19.72,0,0,0-6.75-8.63,26.16,26.16,0,0,0-15.6-4.59,28.47,28.47,0,0,0-15.07,3.87,22.37,22.37,0,0,0-7.92,8.05V326.9h-8.1v62.53H777V356.55a26.79,26.79,0,0,1,2.56-12.21,18,18,0,0,1,7.33-7.74A22.24,22.24,0,0,1,798,333.92q8.58,0,13.34,5.06t4.77,14.95v35.5h8.45V356.55a26.92,26.92,0,0,1,2.56-12.21,18.09,18.09,0,0,1,7.27-7.74,22.18,22.18,0,0,1,11.13-2.68q8.58,0,13.29,5.06t4.7,14.95v35.5H872V353.1Q872,344,868.79,338.09Z"/><rect class="cls-3" x="981.72" width="398" height="398" rx="41.54"/><g class="cls-4"><path class="cls-5" d="M1071.17,117.47h-33.11a15,15,0,0,1-15.08-15V69.89a15,15,0,0,1,15.08-15h33.11a15,15,0,0,1,15.08,15v32.62A15,15,0,0,1,1071.17,117.47Zm-33.11-48.94a1.42,1.42,0,0,0-1.48,1.36v32.62a1.42,1.42,0,0,0,1.48,1.36h33.11a1.43,1.43,0,0,0,1.48-1.36V69.89a1.43,1.43,0,0,0-1.48-1.36Z"/><path class="cls-5" d="M1046.34,182.72a6.78,6.78,0,0,1-4.77-2L1025,164.45a6.8,6.8,0,0,1,9.54-9.69l11.79,11.61,28.33-27.92a6.8,6.8,0,1,1,9.55,9.69l-33.11,32.62A6.8,6.8,0,0,1,1046.34,182.72Z"/><path class="cls-5" d="M1181.2,76.69h-62.81c-3.22,0-5.83-3-5.83-6.8s2.61-6.79,5.83-6.79h62.81c3.22,0,5.83,3,5.83,6.79S1184.42,76.69,1181.2,76.69Z"/><path class="cls-5" d="M1181.2,125.62h-62.81c-3.22,0-5.83-3-5.83-6.79s2.61-6.8,5.83-6.8h62.81c3.22,0,5.83,3,5.83,6.8S1184.42,125.62,1181.2,125.62Z"/><path class="cls-5" d="M1181.2,174.56h-62.81c-3.22,0-5.83-3.05-5.83-6.8s2.61-6.79,5.83-6.79h62.81c3.22,0,5.83,3,5.83,6.79S1184.42,174.56,1181.2,174.56Z"/></g><g class="cls-4"><path class="cls-6" d="M1265.05,282.09a28.3,28.3,0,0,0,20.91-8.93,31.18,31.18,0,0,0,0-42.71,28.93,28.93,0,0,0-41.81,0,30.11,30.11,0,0,0-8.46,21.46,29.44,29.44,0,0,0,8.47,21.26A27.81,27.81,0,0,0,1265.05,282.09Z"/><path class="cls-6" d="M1321,240.49V338.4a12.53,12.53,0,0,1-12.54,12.54h-86.18c-37.6,0-64.55-7-80.13-20.86-14.68-12.83-22.13-34.43-22.13-64.21V263.3l-58.59,23.85.1,1.27c2.73,32.75,14.21,58.25,34.12,75.78,25.32,22.43,66,33.8,120.9,33.8h121.63a41.55,41.55,0,0,0,41.55-41.55v-116Z"/><path class="cls-6" d="M1195.45,282.09a28.75,28.75,0,0,0,21.32-8.93,31.18,31.18,0,0,0,0-42.73,28.75,28.75,0,0,0-21.3-8.91,27.82,27.82,0,0,0-20.9,8.93,30.16,30.16,0,0,0-8.46,21.46,29.44,29.44,0,0,0,8.47,21.26A27.81,27.81,0,0,0,1195.45,282.09Z"/></g></g></g></svg>